<svg width="24" height="24" viewBox="0 0 24 24" fill="none" xmlns="http://www.w3.org/2000/svg">
<g clip-path="url(#clip0_27_2)">
<path d="M15.78 5.113C14.09 3.425 12.48 1.815 11.998 0C11.518 1.815 9.908 3.425 8.22 5.113C5.686 7.643 2.815 10.513 2.815 14.815C2.815 17.251 3.7826 19.5873 5.50493 21.3098C7.22727 23.0323 9.56325 24 11.999 24C14.4348 24 16.7707 23.0323 18.4931 21.3098C20.2154 19.5873 21.183 17.251 21.183 14.815C21.183 10.512 18.312 7.644 15.778 5.113H15.78ZM6.72 16.954C6.157 16.935 4.08 13.354 7.935 9.538L10.485 12.326C10.5069 12.3476 10.524 12.3735 10.5352 12.4021C10.5463 12.4307 10.5513 12.4614 10.5498 12.4921C10.5483 12.5228 10.5403 12.5528 10.5264 12.5802C10.5125 12.6076 10.4929 12.6317 10.469 12.651C9.859 13.276 7.265 15.878 6.942 16.777C6.876 16.963 6.778 16.957 6.72 16.954V16.954ZM12 21.677C11.5852 21.677 11.1745 21.5953 10.7913 21.4365C10.408 21.2777 10.0599 21.045 9.76661 20.7517C9.47335 20.4583 9.24075 20.1101 9.0821 19.7268C8.92346 19.3436 8.84187 18.9328 8.842 18.518C8.85341 17.7519 9.13174 17.0139 9.629 16.431C10.199 15.735 11.999 13.776 11.999 13.776C11.999 13.776 13.773 15.764 14.366 16.425C14.8822 16.9992 15.1648 17.7459 15.158 18.518C15.1581 18.9328 15.0765 19.3436 14.9179 19.7268C14.7593 20.1101 14.5267 20.4583 14.2334 20.7517C13.9401 21.045 13.592 21.2777 13.2087 21.4365C12.8255 21.5953 12.4148 21.677 12 21.677ZM18.046 16.554C17.978 16.704 17.823 16.952 17.615 16.959C17.244 16.973 17.204 16.782 16.929 16.376C16.325 15.484 11.065 9.986 10.081 8.921C9.215 7.986 9.959 7.326 10.304 6.981C10.736 6.547 12 5.285 12 5.285C12 5.285 15.766 8.859 17.336 11.301C18.906 13.744 18.365 15.857 18.046 16.554" fill="white"/>
</g>
<defs>
<clipPath id="clip0_27_2">
<rect width="24" height="24" fill="white"/>
</clipPath>
</defs>
</svg>
