<svg width="21" height="20" viewBox="0 0 21 20" fill="none" xmlns="http://www.w3.org/2000/svg">
<path d="M1.35625 20V6.23H3.86725V20H1.35625ZM2.62525 4.043C2.17525 4.043 1.77925 3.881 1.43725 3.557C1.11325 3.215 0.951254 2.819 0.951254 2.369C0.951254 1.919 1.11325 1.532 1.43725 1.208C1.77925 0.865999 2.17525 0.694999 2.62525 0.694999C3.07525 0.694999 3.46225 0.865999 3.78625 1.208C4.12825 1.532 4.29925 1.919 4.29925 2.369C4.29925 2.819 4.12825 3.215 3.78625 3.557C3.46225 3.881 3.07525 4.043 2.62525 4.043ZM7.78985 20V12.035C7.78985 10.811 8.05985 9.74 8.59985 8.822C9.15785 7.904 9.92285 7.193 10.8948 6.689C11.8668 6.167 12.9738 5.906 14.2158 5.906C15.4758 5.906 16.5828 6.167 17.5368 6.689C18.5088 7.193 19.2648 7.904 19.8048 8.822C20.3628 9.74 20.6418 10.811 20.6418 12.035V20H18.1578V12.062C18.1578 11.234 17.9688 10.523 17.5908 9.929C17.2308 9.317 16.7448 8.849 16.1328 8.525C15.5388 8.201 14.8998 8.039 14.2158 8.039C13.5318 8.039 12.8838 8.201 12.2718 8.525C11.6778 8.849 11.1918 9.317 10.8138 9.929C10.4538 10.523 10.2738 11.234 10.2738 12.062V20H7.78985Z" fill="white"/>
</svg>
