<svg width="44" height="45" viewBox="0 0 44 45" fill="none" xmlns="http://www.w3.org/2000/svg">
<path d="M29.3333 4.16667V15.1667H40.3333" stroke="#F25035" stroke-width="2" stroke-linecap="round" stroke-linejoin="round"/>
<path d="M42.1667 2.33333L29.3333 15.1667" stroke="#F25035" stroke-width="2" stroke-linecap="round" stroke-linejoin="round"/>
<path d="M40.3333 31.52V37.02C40.3354 37.5306 40.2308 38.036 40.0263 38.5038C39.8217 38.9716 39.5217 39.3916 39.1455 39.7368C38.7692 40.0819 38.3251 40.3447 37.8414 40.5083C37.3577 40.6719 36.8452 40.7326 36.3367 40.6867C30.6952 40.0737 25.2762 38.1459 20.515 35.0583C16.0854 32.2436 12.3298 28.488 9.515 24.0583C6.41663 19.2755 4.48845 13.8302 3.88667 8.16333C3.84085 7.65636 3.9011 7.14539 4.06358 6.66298C4.22606 6.18056 4.48721 5.73726 4.8304 5.36131C5.1736 4.98535 5.59131 4.68497 6.05695 4.47929C6.52259 4.27361 7.02596 4.16715 7.535 4.16667H13.035C13.9247 4.15791 14.7873 4.47298 15.4619 5.05314C16.1365 5.63331 16.5771 6.43899 16.7017 7.32C16.9338 9.08012 17.3643 10.8083 17.985 12.4717C18.2317 13.1279 18.285 13.841 18.1388 14.5266C17.9926 15.2122 17.6529 15.8415 17.16 16.34L14.8317 18.6683C17.4415 23.2582 21.2418 27.0585 25.8317 29.6683L28.16 27.34C28.6585 26.8471 29.2878 26.5074 29.9734 26.3612C30.659 26.215 31.3721 26.2683 32.0283 26.515C33.6917 27.1357 35.4199 27.5662 37.18 27.7983C38.0706 27.924 38.8839 28.3725 39.4653 29.0587C40.0467 29.7449 40.3556 30.6209 40.3333 31.52Z" stroke="#828385" stroke-width="2" stroke-linecap="round" stroke-linejoin="round"/>
</svg>
